<?xml version="1.0" encoding="UTF-8" standalone="no"?>
<svg
   xmlns:dc="http://purl.org/dc/elements/1.1/"
   xmlns:cc="http://creativecommons.org/ns#"
   xmlns:rdf="http://www.w3.org/1999/02/22-rdf-syntax-ns#"
   xmlns:svg="http://www.w3.org/2000/svg"
   xmlns="http://www.w3.org/2000/svg"
   xmlns:xlink="http://www.w3.org/1999/xlink"
   xmlns:sodipodi="http://sodipodi.sourceforge.net/DTD/sodipodi-0.dtd"
   xmlns:inkscape="http://www.inkscape.org/namespaces/inkscape"
   width="256px"
   height="250px"
   viewBox="0 0 256 250"
   version="1.1"
   preserveAspectRatio="xMidYMid"
   id="svg6"
   sodipodi:docname="github-seeklogo.com.svg"
   inkscape:version="1.0.2 (1.0.2+r75+1)">
  <metadata
     id="metadata12">
    <rdf:RDF>
      <cc:Work
         rdf:about="">
        <dc:format>image/svg+xml</dc:format>
        <dc:type
           rdf:resource="http://purl.org/dc/dcmitype/StillImage" />
        <dc:title></dc:title>
      </cc:Work>
    </rdf:RDF>
  </metadata>
  <defs
     id="defs10">
    <linearGradient
       inkscape:collect="always"
       id="linearGradient957">
      <stop
         style="stop-color:#6b2dc2;stop-opacity:1"
         offset="0"
         id="stop953" />
      <stop
         style="stop-color:#28f9ff;stop-opacity:1"
         offset="1"
         id="stop955" />
    </linearGradient>
    <linearGradient
       inkscape:collect="always"
       id="linearGradient947">
      <stop
         style="stop-color:#00a5d1;stop-opacity:1"
         offset="0"
         id="stop943" />
      <stop
         style="stop-color:#62257d;stop-opacity:1"
         offset="1"
         id="stop945" />
    </linearGradient>
    <linearGradient
       inkscape:collect="always"
       id="linearGradient859">
      <stop
         style="stop-color:#6c45a3;stop-opacity:1"
         offset="0"
         id="stop855" />
      <stop
         style="stop-color:#12c3c7;stop-opacity:1"
         offset="1"
         id="stop857" />
    </linearGradient>
    <linearGradient
       inkscape:collect="always"
       xlink:href="#linearGradient859"
       id="linearGradient861"
       x1="126.72475"
       y1="-99.414619"
       x2="131.05038"
       y2="346.3862"
       gradientUnits="userSpaceOnUse"
       gradientTransform="translate(-0.89555359,2.5811996)" />
    <linearGradient
       inkscape:collect="always"
       xlink:href="#linearGradient947"
       id="linearGradient949"
       x1="137.4864"
       y1="13.632452"
       x2="139.0471"
       y2="240.56877"
       gradientUnits="userSpaceOnUse" />
    <linearGradient
       inkscape:collect="always"
       xlink:href="#linearGradient957"
       id="linearGradient951"
       gradientUnits="userSpaceOnUse"
       x1="164.451"
       y1="118.703"
       x2="158.39624"
       y2="550.3399" />
    <linearGradient
       inkscape:collect="always"
       xlink:href="#linearGradient947"
       id="linearGradient897"
       gradientUnits="userSpaceOnUse"
       x1="137.4864"
       y1="13.632452"
       x2="139.0471"
       y2="240.56877" />
    <linearGradient
       inkscape:collect="always"
       xlink:href="#linearGradient947"
       id="linearGradient899"
       gradientUnits="userSpaceOnUse"
       x1="137.4864"
       y1="13.632452"
       x2="139.0471"
       y2="240.56877" />
    <linearGradient
       inkscape:collect="always"
       xlink:href="#linearGradient947"
       id="linearGradient901"
       gradientUnits="userSpaceOnUse"
       x1="137.4864"
       y1="13.632452"
       x2="139.0471"
       y2="240.56877" />
    <linearGradient
       inkscape:collect="always"
       xlink:href="#linearGradient947"
       id="linearGradient903"
       gradientUnits="userSpaceOnUse"
       x1="137.4864"
       y1="13.632452"
       x2="139.0471"
       y2="240.56877" />
    <linearGradient
       inkscape:collect="always"
       xlink:href="#linearGradient947"
       id="linearGradient905"
       gradientUnits="userSpaceOnUse"
       x1="137.4864"
       y1="13.632452"
       x2="139.0471"
       y2="240.56877" />
    <linearGradient
       inkscape:collect="always"
       xlink:href="#linearGradient947"
       id="linearGradient907"
       gradientUnits="userSpaceOnUse"
       x1="137.4864"
       y1="13.632452"
       x2="139.0471"
       y2="240.56877" />
    <linearGradient
       inkscape:collect="always"
       xlink:href="#linearGradient947"
       id="linearGradient909"
       gradientUnits="userSpaceOnUse"
       x1="137.4864"
       y1="13.632452"
       x2="139.0471"
       y2="240.56877" />
    <linearGradient
       inkscape:collect="always"
       xlink:href="#linearGradient947"
       id="linearGradient911"
       gradientUnits="userSpaceOnUse"
       x1="137.4864"
       y1="13.632452"
       x2="139.0471"
       y2="240.56877" />
    <linearGradient
       inkscape:collect="always"
       xlink:href="#linearGradient947"
       id="linearGradient913"
       gradientUnits="userSpaceOnUse"
       x1="137.4864"
       y1="13.632452"
       x2="139.0471"
       y2="240.56877" />
    <linearGradient
       inkscape:collect="always"
       xlink:href="#linearGradient947"
       id="linearGradient915"
       gradientUnits="userSpaceOnUse"
       x1="137.4864"
       y1="13.632452"
       x2="139.0471"
       y2="240.56877" />
    <linearGradient
       inkscape:collect="always"
       xlink:href="#linearGradient947"
       id="linearGradient917"
       gradientUnits="userSpaceOnUse"
       x1="137.4864"
       y1="13.632452"
       x2="139.0471"
       y2="240.56877" />
    <linearGradient
       inkscape:collect="always"
       xlink:href="#linearGradient947"
       id="linearGradient919"
       gradientUnits="userSpaceOnUse"
       x1="137.4864"
       y1="13.632452"
       x2="139.0471"
       y2="240.56877" />
    <linearGradient
       inkscape:collect="always"
       xlink:href="#linearGradient947"
       id="linearGradient921"
       gradientUnits="userSpaceOnUse"
       x1="137.4864"
       y1="13.632452"
       x2="139.0471"
       y2="240.56877" />
    <linearGradient
       inkscape:collect="always"
       xlink:href="#linearGradient947"
       id="linearGradient923"
       gradientUnits="userSpaceOnUse"
       x1="137.4864"
       y1="13.632452"
       x2="139.0471"
       y2="240.56877" />
    <linearGradient
       inkscape:collect="always"
       xlink:href="#linearGradient947"
       id="linearGradient925"
       gradientUnits="userSpaceOnUse"
       x1="137.4864"
       y1="13.632452"
       x2="139.0471"
       y2="240.56877" />
    <linearGradient
       inkscape:collect="always"
       xlink:href="#linearGradient947"
       id="linearGradient927"
       gradientUnits="userSpaceOnUse"
       x1="137.4864"
       y1="13.632452"
       x2="139.0471"
       y2="240.56877" />
    <linearGradient
       inkscape:collect="always"
       xlink:href="#linearGradient947"
       id="linearGradient929"
       gradientUnits="userSpaceOnUse"
       x1="137.4864"
       y1="13.632452"
       x2="139.0471"
       y2="240.56877" />
  </defs>
  <sodipodi:namedview
     pagecolor="#ffffff"
     bordercolor="#666666"
     borderopacity="1"
     objecttolerance="10"
     gridtolerance="10"
     guidetolerance="10"
     inkscape:pageopacity="0"
     inkscape:pageshadow="2"
     inkscape:window-width="640"
     inkscape:window-height="480"
     id="namedview8"
     showgrid="false"
     inkscape:zoom="1.3524235"
     inkscape:cx="128"
     inkscape:cy="123.39796"
     inkscape:current-layer="layer1"
     inkscape:document-rotation="0" />
  <g
     inkscape:groupmode="layer"
     id="layer1"
     inkscape:label="Main">
    <g
       id="g1017"
       transform="matrix(0.54338329,0,0,0.54338329,58.446939,57.077089)"
       style="stroke-width:1.84032">
      <path
         style="color:#000000;font-style:normal;font-variant:normal;font-weight:normal;font-stretch:normal;font-size:medium;line-height:normal;font-family:sans-serif;font-variant-ligatures:normal;font-variant-position:normal;font-variant-caps:normal;font-variant-numeric:normal;font-variant-alternates:normal;font-variant-east-asian:normal;font-feature-settings:normal;font-variation-settings:normal;text-indent:0;text-align:start;text-decoration:none;text-decoration-line:none;text-decoration-style:solid;text-decoration-color:#000000;letter-spacing:normal;word-spacing:normal;text-transform:none;writing-mode:lr-tb;direction:ltr;text-orientation:mixed;dominant-baseline:auto;baseline-shift:baseline;text-anchor:start;white-space:normal;shape-padding:0;shape-margin:0;inline-size:0;clip-rule:nonzero;display:inline;overflow:visible;visibility:visible;isolation:auto;mix-blend-mode:normal;color-interpolation:sRGB;color-interpolation-filters:linearRGB;solid-color:#000000;solid-opacity:1;vector-effect:none;fill:url(#linearGradient861);fill-opacity:1;fill-rule:nonzero;stroke:none;stroke-width:1.84032;stroke-linecap:round;stroke-linejoin:round;stroke-miterlimit:4;stroke-dasharray:none;stroke-dashoffset:0;stroke-opacity:1;color-rendering:auto;image-rendering:auto;shape-rendering:auto;text-rendering:auto;enable-background:accumulate;stop-color:#000000"
         d="M 128,-104.29688 C 1.4209551,-104.29688 -101.29687,-1.5790449 -101.29688,125 -101.29687,251.57904 1.4209551,354.29688 128,354.29688 254.57904,354.29688 357.29688,251.57904 357.29688,125 357.29688,-1.5790449 254.57904,-104.29687 128,-104.29688 Z m 0,9.781255 C 249.29354,-94.515625 347.51562,3.7064592 347.51562,125 347.51562,246.29354 249.29354,344.51562 128,344.51562 6.7064592,344.51562 -91.515625,246.29354 -91.515625,125 -91.515625,3.7064592 6.7064592,-94.515625 128,-94.515625 Z"
         id="path837" />
      <g
         id="g941"
         transform="matrix(1.0545215,0,0,1.0545215,-7.9231325,-4.093257)"
         style="fill:url(#linearGradient949);fill-opacity:1;stroke-width:1.74517">
        <g
           id="g921"
           transform="matrix(0.55356593,0,0,0.55356593,7.5134914,1.0360505)"
           style="fill:url(#linearGradient929);fill-opacity:1;stroke-width:3.1526">
          <g
             id="g865"
             style="fill:url(#linearGradient897);fill-opacity:1;stroke-width:3.1526">
            <path
               d="M 409.132,114.573 C 389.524,80.977 362.927,54.379 329.334,34.773 295.736,15.166 259.057,5.365 219.271,5.365 c -39.781,0 -76.472,9.804 -110.063,29.408 -33.596,19.605 -60.192,46.204 -79.8,79.8 C 9.803,148.168 0,184.854 0,224.63 c 0,47.78 13.94,90.745 41.827,128.906 27.884,38.164 63.906,64.572 108.063,79.227 5.14,0.954 8.945,0.283 11.419,-1.996 2.475,-2.282 3.711,-5.14 3.711,-8.562 0,-0.571 -0.049,-5.708 -0.144,-15.417 -0.098,-9.709 -0.144,-18.179 -0.144,-25.406 l -6.567,1.136 c -4.187,0.767 -9.469,1.092 -15.846,1 -6.374,-0.089 -12.991,-0.757 -19.842,-1.999 -6.854,-1.231 -13.229,-4.086 -19.13,-8.559 -5.898,-4.473 -10.085,-10.328 -12.56,-17.556 l -2.855,-6.57 c -1.903,-4.374 -4.899,-9.233 -8.992,-14.559 -4.093,-5.331 -8.232,-8.945 -12.419,-10.848 l -1.999,-1.431 c -1.332,-0.951 -2.568,-2.098 -3.711,-3.429 -1.142,-1.331 -1.997,-2.663 -2.568,-3.997 -0.572,-1.335 -0.098,-2.43 1.427,-3.289 1.525,-0.859 4.281,-1.276 8.28,-1.276 l 5.708,0.853 c 3.807,0.763 8.516,3.042 14.133,6.851 5.614,3.806 10.229,8.754 13.846,14.842 4.38,7.806 9.657,13.754 15.846,17.847 6.184,4.093 12.419,6.136 18.699,6.136 6.28,0 11.704,-0.476 16.274,-1.423 4.565,-0.952 8.848,-2.383 12.847,-4.285 1.713,-12.758 6.377,-22.559 13.988,-29.41 -10.848,-1.14 -20.601,-2.857 -29.264,-5.14 -8.658,-2.286 -17.605,-5.996 -26.835,-11.14 -9.235,-5.137 -16.896,-11.516 -22.985,-19.126 -6.09,-7.614 -11.088,-17.61 -14.987,-29.979 -3.901,-12.374 -5.852,-26.648 -5.852,-42.826 0,-23.035 7.52,-42.637 22.557,-58.817 -7.044,-17.318 -6.379,-36.732 1.997,-58.24 5.52,-1.715 13.706,-0.428 24.554,3.853 10.85,4.283 18.794,7.952 23.84,10.994 5.046,3.041 9.089,5.618 12.135,7.708 17.705,-4.947 35.976,-7.421 54.818,-7.421 18.842,0 37.117,2.474 54.823,7.421 l 10.849,-6.849 c 7.419,-4.57 16.18,-8.758 26.262,-12.565 10.088,-3.805 17.802,-4.853 23.134,-3.138 8.562,21.509 9.325,40.922 2.279,58.24 15.036,16.18 22.559,35.787 22.559,58.817 0,16.178 -1.958,30.497 -5.853,42.966 -3.9,12.471 -8.941,22.457 -15.125,29.979 -6.191,7.521 -13.901,13.85 -23.131,18.986 -9.232,5.14 -18.182,8.85 -26.84,11.136 -8.662,2.286 -18.415,4.004 -29.263,5.146 9.894,8.562 14.842,22.077 14.842,40.539 v 60.237 c 0,3.422 1.19,6.279 3.572,8.562 2.379,2.279 6.136,2.95 11.276,1.995 44.163,-14.653 80.185,-41.062 108.068,-79.226 27.88,-38.161 41.825,-81.126 41.825,-128.906 -0.01,-39.771 -9.818,-76.454 -29.414,-110.049 z"
               id="path863"
               style="fill:url(#linearGradient951);fill-opacity:1;stroke-width:3.1526" />
          </g>
          <g
             id="g867"
             style="fill:url(#linearGradient899);fill-opacity:1;stroke-width:3.1526" />
          <g
             id="g869"
             style="fill:url(#linearGradient901);fill-opacity:1;stroke-width:3.1526" />
          <g
             id="g871"
             style="fill:url(#linearGradient903);fill-opacity:1;stroke-width:3.1526" />
          <g
             id="g873"
             style="fill:url(#linearGradient905);fill-opacity:1;stroke-width:3.1526" />
          <g
             id="g875"
             style="fill:url(#linearGradient907);fill-opacity:1;stroke-width:3.1526" />
          <g
             id="g877"
             style="fill:url(#linearGradient909);fill-opacity:1;stroke-width:3.1526" />
          <g
             id="g879"
             style="fill:url(#linearGradient911);fill-opacity:1;stroke-width:3.1526" />
          <g
             id="g881"
             style="fill:url(#linearGradient913);fill-opacity:1;stroke-width:3.1526" />
          <g
             id="g883"
             style="fill:url(#linearGradient915);fill-opacity:1;stroke-width:3.1526" />
          <g
             id="g885"
             style="fill:url(#linearGradient917);fill-opacity:1;stroke-width:3.1526" />
          <g
             id="g887"
             style="fill:url(#linearGradient919);fill-opacity:1;stroke-width:3.1526" />
          <g
             id="g889"
             style="fill:url(#linearGradient921);fill-opacity:1;stroke-width:3.1526" />
          <g
             id="g891"
             style="fill:url(#linearGradient923);fill-opacity:1;stroke-width:3.1526" />
          <g
             id="g893"
             style="fill:url(#linearGradient925);fill-opacity:1;stroke-width:3.1526" />
          <g
             id="g895"
             style="fill:url(#linearGradient927);fill-opacity:1;stroke-width:3.1526" />
        </g>
      </g>
    </g>
  </g>
</svg>
