<?xml version="1.0" encoding="UTF-8" standalone="no"?>
<svg
   xmlns:dc="http://purl.org/dc/elements/1.1/"
   xmlns:cc="http://creativecommons.org/ns#"
   xmlns:rdf="http://www.w3.org/1999/02/22-rdf-syntax-ns#"
   xmlns:svg="http://www.w3.org/2000/svg"
   xmlns="http://www.w3.org/2000/svg"
   xmlns:xlink="http://www.w3.org/1999/xlink"
   xmlns:sodipodi="http://sodipodi.sourceforge.net/DTD/sodipodi-0.dtd"
   xmlns:inkscape="http://www.inkscape.org/namespaces/inkscape"
   width="458mm"
   height="324mm"
   viewBox="0 0 458 324"
   version="1.1"
   id="svg8"
   inkscape:version="1.0.2 (1.0.2+r75+1)"
   sodipodi:docname="twitter.svg">
  <defs
     id="defs2">
    <linearGradient
       inkscape:collect="always"
       id="linearGradient868">
      <stop
         style="stop-color:#9e47e2;stop-opacity:1;"
         offset="0"
         id="stop864" />
      <stop
         style="stop-color:#47dfe2;stop-opacity:1"
         offset="1"
         id="stop866" />
    </linearGradient>
    <linearGradient
       inkscape:collect="always"
       id="linearGradient850">
      <stop
         style="stop-color:#55acee;stop-opacity:1;"
         offset="0"
         id="stop846" />
      <stop
         style="stop-color:#9e47e2;stop-opacity:1"
         offset="1"
         id="stop848" />
    </linearGradient>
    <linearGradient
       inkscape:collect="always"
       xlink:href="#linearGradient850"
       id="linearGradient852"
       x1="251.10368"
       y1="107.88889"
       x2="250.36572"
       y2="155.53033"
       gradientUnits="userSpaceOnUse"
       gradientTransform="translate(-21.365731,33.99235)" />
    <linearGradient
       inkscape:collect="always"
       xlink:href="#linearGradient868"
       id="linearGradient870"
       x1="229"
       y1="101.33202"
       x2="229"
       y2="221.37418"
       gradientUnits="userSpaceOnUse" />
  </defs>
  <sodipodi:namedview
     id="base"
     pagecolor="#444444"
     bordercolor="#666666"
     borderopacity="1.0"
     inkscape:pageopacity="0"
     inkscape:pageshadow="2"
     inkscape:zoom="0.54654745"
     inkscape:cx="866.46003"
     inkscape:cy="625.57052"
     inkscape:document-units="px"
     inkscape:current-layer="layer2"
     inkscape:document-rotation="0"
     showgrid="false"
     inkscape:pagecheckerboard="false"
     showborder="true"
     borderlayer="false"
     inkscape:showpageshadow="false"
     inkscape:snap-bbox="true"
     inkscape:bbox-paths="true"
     inkscape:bbox-nodes="true"
     inkscape:snap-bbox-edge-midpoints="true"
     inkscape:snap-bbox-midpoints="true"
     inkscape:object-paths="true"
     inkscape:snap-smooth-nodes="true"
     inkscape:snap-midpoints="true"
     inkscape:snap-object-midpoints="true"
     inkscape:snap-center="true"
     inkscape:snap-text-baseline="true"
     inkscape:snap-page="true"
     inkscape:snap-nodes="true"
     units="mm"
     inkscape:window-width="1366"
     inkscape:window-height="703"
     inkscape:window-x="0"
     inkscape:window-y="0"
     inkscape:window-maximized="1" />
  <metadata
     id="metadata5">
    <rdf:RDF>
      <cc:Work
         rdf:about="">
        <dc:format>image/svg+xml</dc:format>
        <dc:type
           rdf:resource="http://purl.org/dc/dcmitype/StillImage" />
        <dc:title />
      </cc:Work>
    </rdf:RDF>
  </metadata>
  <g
     inkscape:label="Background"
     inkscape:groupmode="layer"
     id="layer1"
     style="display:inline" />
  <g
     inkscape:groupmode="layer"
     id="layer2"
     inkscape:label="Workspace">
    <g
       id="g846">
      <circle
         style="fill:none;fill-opacity:1;stroke:url(#linearGradient870);stroke-width:2.58763;stroke-linecap:round;stroke-linejoin:round;stroke-miterlimit:4;stroke-dasharray:none;stroke-opacity:1"
         id="path854"
         cx="229"
         cy="162"
         r="59.374172" />
      <path
         d="m 262.86664,140.99348 c -2.49215,1.10523 -5.17036,1.8522 -7.98137,2.18816 2.86923,-1.71991 5.0725,-4.44322 6.11009,-7.68804 -2.6849,1.59231 -5.65894,2.74882 -8.82424,3.37217 -2.53501,-2.70076 -6.14651,-4.38846 -10.14327,-4.38846 -7.67466,0 -13.89674,6.22184 -13.89674,13.896 0,1.08913 0.12313,2.14976 0.35998,3.16679 -11.54928,-0.5795 -21.78868,-6.11183 -28.64253,-14.5191 -1.19616,2.05239 -1.88145,4.43949 -1.88145,6.98615 0,4.82104 2.45351,9.07447 6.1822,11.56637 -2.2781,-0.0721 -4.42067,-0.69717 -6.29443,-1.73799 -9.8e-4,0.058 -9.8e-4,0.1162 -9.8e-4,0.17467 0,6.73295 4.79007,12.34952 11.14718,13.62595 -1.16618,0.31762 -2.3938,0.48733 -3.6613,0.48733 -0.89539,0 -1.76599,-0.087 -2.6143,-0.24924 1.76822,5.52094 6.90018,9.53851 12.98105,9.65074 -4.75588,3.72696 -10.7478,5.94856 -17.25827,5.94856 -1.12158,0 -2.2278,-0.0657 -3.31494,-0.19399 6.14974,3.94275 13.45426,6.24314 21.30185,6.24314 25.56024,0 39.5375,-21.17475 39.5375,-39.53799 0,-0.60254 -0.0134,-1.20185 -0.0401,-1.7977 2.71487,-1.95923 5.07101,-4.40679 6.93411,-7.19352"
         fill="#55acee"
         id="path832"
         style="fill:url(#linearGradient852);fill-opacity:1;stroke-width:0.264583" />
    </g>
  </g>
</svg>
